<svg width="42" height="42" viewBox="0 0 42 42" fill="none" xmlns="http://www.w3.org/2000/svg">
<path d="M3.5 38.5002H38.5" stroke="#1F1F1F" stroke-width="2" stroke-linecap="round" stroke-linejoin="round"/>
<path d="M35 38V12C35 10.8954 34.1046 10 33 10H9C7.89543 10 7 10.8954 7 12V38" stroke="#1F1F1F" stroke-width="2"/>
<path d="M10 18.2856C10 17.2684 10.7635 16.4132 11.7742 16.2984L29.7742 14.2529C30.9606 14.1181 32 15.0461 32 16.2401V21H10V18.2856Z" fill="#78A3B6"/>
<path d="M25 27L30 27" stroke="#78A3B6" stroke-width="2" stroke-linecap="round"/>
<path d="M12 27L17 27" stroke="#78A3B6" stroke-width="2" stroke-linecap="round"/>
<path d="M25 33L30 33" stroke="#78A3B6" stroke-width="2" stroke-linecap="round"/>
<path d="M12 33L17 33" stroke="#78A3B6" stroke-width="2" stroke-linecap="round"/>
<path d="M7 20H35.941" stroke="#1F1F1F" stroke-width="2"/>
<path d="M15 7V13" stroke="#1F1F1F" stroke-width="2" stroke-linecap="round"/>
<path d="M27 7V13" stroke="#1F1F1F" stroke-width="2" stroke-linecap="round"/>
</svg>
