<svg width="43" height="42" viewBox="0 0 43 42" fill="none" xmlns="http://www.w3.org/2000/svg">
<path d="M20.8793 34.9001L8.17285 38.3655H35.6344V21.0001L27.7494 25.1304C27.3596 25.3345 27.0327 25.641 26.8039 26.0169L21.8342 34.1816C21.6194 34.5343 21.2778 34.7914 20.8793 34.9001Z" fill="#78A3B6"/>
<path d="M4 38.5002H39" stroke="#1F1F1F" stroke-width="2" stroke-linecap="round" stroke-linejoin="round"/>
<path d="M8.57715 37.9617V29.8078C8.57715 29.2555 9.02486 28.8078 9.57715 28.8078H16.731C17.2833 28.8078 17.731 28.3601 17.731 27.8078V20.654C17.731 20.1017 18.1787 19.654 18.731 19.654H25.8848C26.4371 19.654 26.8848 19.2063 26.8848 18.654V11.5001C26.8848 10.9478 27.3326 10.5001 27.8848 10.5001H35.0387C35.591 10.5001 36.0387 10.9478 36.0387 11.5001V37.9617" stroke="#1F1F1F" stroke-width="1.61538"/>
<path d="M29.5527 15.4246H33.5527" stroke="#78A3B6" stroke-width="1.61538" stroke-linecap="round"/>
<path d="M20.3076 23.7656H24.3076" stroke="#78A3B6" stroke-width="1.61538" stroke-linecap="round"/>
</svg>
