<svg width="42" height="42" viewBox="0 0 42 42" fill="none" xmlns="http://www.w3.org/2000/svg">
<path d="M25 11L36 11V25H25V11Z" fill="#78A3B6"/>
<path d="M36 25L18 25" stroke="#1F1F1F" stroke-width="2" stroke-linecap="round"/>
<path d="M21 8L21 25" stroke="#1F1F1F" stroke-width="2" stroke-linecap="round"/>
<path d="M3.5 38.5002H38.5" stroke="#1F1F1F" stroke-width="2" stroke-linecap="round" stroke-linejoin="round"/>
<mask id="path-5-inside-1_2030_4139" fill="white">
<path d="M5 9C5 7.89543 5.89543 7 7 7H35C36.1046 7 37 7.89543 37 9V39H5V9Z"/>
</mask>
<path d="M3 9C3 6.79086 4.79086 5 7 5H35C37.2091 5 39 6.79086 39 9H35H7H3ZM37 39H5H37ZM3 39V9C3 6.79086 4.79086 5 7 5V9V39H3ZM35 5C37.2091 5 39 6.79086 39 9V39H35V9V5Z" fill="#1F1F1F" mask="url(#path-5-inside-1_2030_4139)"/>
<path d="M21 32L21 38" stroke="#1F1F1F" stroke-width="2" stroke-linecap="round"/>
<path d="M14 25L10 25" stroke="#78A3B6" stroke-width="2" stroke-linecap="round"/>
</svg>
