<svg width="43" height="42" viewBox="0 0 43 42" fill="none" xmlns="http://www.w3.org/2000/svg">
<path d="M24.9252 32.2187L9.94238 38.3655H31.7501L31.3462 8.07703L25.8838 31.0971C25.7637 31.6036 25.4068 32.0211 24.9252 32.2187Z" fill="#78A3B6"/>
<path d="M3.75 38.5002H38.75" stroke="#1F1F1F" stroke-width="2" stroke-linecap="round" stroke-linejoin="round"/>
<mask id="path-3-inside-1_2030_4134" fill="white">
<path d="M9.94238 7.65393C9.94238 6.54936 10.8378 5.65393 11.9424 5.65393H30.5578C31.6623 5.65393 32.5578 6.54936 32.5578 7.65393V38.7693H9.94238V7.65393Z"/>
</mask>
<path d="M7.94238 7.65393C7.94238 5.44479 9.73324 3.65393 11.9424 3.65393H30.5578C32.7669 3.65393 34.5578 5.44479 34.5578 7.65393H30.5578H11.9424H7.94238ZM32.5578 38.7693H9.94238H32.5578ZM7.94238 38.7693V7.65393C7.94238 5.44479 9.73324 3.65393 11.9424 3.65393V7.65393V38.7693H7.94238ZM30.5578 3.65393C32.7669 3.65393 34.5578 5.44479 34.5578 7.65393V38.7693H30.5578V7.65393V3.65393Z" fill="#1F1F1F" mask="url(#path-3-inside-1_2030_4134)"/>
<path d="M14.7886 20.1924L14.7886 25.0386" stroke="#78A3B6" stroke-width="1.61538" stroke-linecap="round"/>
</svg>
