<svg width="28" height="28" viewBox="0 0 28 28" fill="none" xmlns="http://www.w3.org/2000/svg">
<mask id="path-1-inside-1_5003_4" fill="white">
<path d="M28 14C28 21.732 21.732 28 14 28C6.26801 28 0 21.732 0 14C0 6.26801 6.26801 0 14 0C21.732 0 28 6.26801 28 14Z"/>
</mask>
<path d="M7 13C6.44772 13 6 13.4477 6 14C6 14.5523 6.44772 15 7 15V14V13ZM21.7071 14.7071C22.0976 14.3166 22.0976 13.6834 21.7071 13.2929L15.3431 6.92893C14.9526 6.53841 14.3195 6.53841 13.9289 6.92893C13.5384 7.31946 13.5384 7.95262 13.9289 8.34315L19.5858 14L13.9289 19.6569C13.5384 20.0474 13.5384 20.6805 13.9289 21.0711C14.3195 21.4616 14.9526 21.4616 15.3431 21.0711L21.7071 14.7071ZM7 14V15H21V14V13H7V14ZM28 14H26C26 20.6274 20.6274 26 14 26V28V30C22.8366 30 30 22.8366 30 14H28ZM14 28V26C7.37258 26 2 20.6274 2 14H0H-2C-2 22.8366 5.16344 30 14 30V28ZM0 14H2C2 7.37258 7.37258 2 14 2V0V-2C5.16344 -2 -2 5.16344 -2 14H0ZM14 0V2C20.6274 2 26 7.37258 26 14H28H30C30 5.16344 22.8366 -2 14 -2V0Z" fill="#0E1218" mask="url(#path-1-inside-1_5003_4)"/>
</svg>
