<svg width="18" height="10" viewBox="0 0 18 10" fill="none" xmlns="http://www.w3.org/2000/svg">
<path d="M0.287302 0.431232C0.491652 0.180598 0.781068 0.0266237 1.09195 0.0031404C1.40284 -0.0203429 1.70976 0.0885858 1.94528 0.305994L9.4826 7.26711L16.0263 0.362351C16.2502 0.142132 16.5456 0.0230782 16.8502 0.0302832C17.1549 0.0374891 17.445 0.170389 17.6595 0.400974C17.874 0.63156 17.996 0.941819 17.9999 1.26636C18.0038 1.59091 17.8892 1.90438 17.6804 2.14072L10.7525 9.45459C10.4366 9.78862 10.0138 9.98307 9.56892 9.99895C9.12403 10.0148 8.68995 9.85094 8.35376 9.54017L0.404889 2.19708C0.169566 1.97943 0.0249968 1.67119 0.00294818 1.34008C-0.0191004 1.00896 0.0831753 0.682073 0.287302 0.431232Z" fill="#363E47"/>
</svg>
