<svg width="16" height="11" viewBox="0 0 16 11" fill="none" xmlns="http://www.w3.org/2000/svg">
<path d="M0.727273 5.81816H15.2727C15.7576 5.81816 16 6.06058 16 6.54543V9.45452C16 9.93937 15.7576 10.1818 15.2727 10.1818H0.727273C0.242424 10.1818 -1.13636e-08 9.93937 0 9.45452V6.54543C0 6.06058 0.242424 5.81816 0.727273 5.81816Z" fill="#4B5053"/>
<path d="M8.72723 5.09091H7.27269V4.36364C7.27269 4.17075 7.19606 3.98577 7.05967 3.84938C6.92328 3.71299 6.7383 3.63636 6.54541 3.63636H3.63632C3.44344 3.63636 3.25845 3.71299 3.12206 3.84938C2.98567 3.98577 2.90905 4.17075 2.90905 4.36364V5.09091H2.18178C1.98889 5.09091 1.80391 5.01429 1.66752 4.87789C1.53113 4.7415 1.4545 4.55652 1.4545 4.36364V1.45455C1.4545 1.06878 1.60775 0.698807 1.88053 0.426027C2.15331 0.153246 2.52328 0 2.90905 0H13.0909C13.4766 0 13.8466 0.153246 14.1194 0.426027C14.3922 0.698807 14.5454 1.06878 14.5454 1.45455V4.36364C14.5454 4.55652 14.4688 4.7415 14.3324 4.87789C14.196 5.01429 14.011 5.09091 13.8181 5.09091H13.0909V4.36364C13.0909 4.17075 13.0142 3.98577 12.8779 3.84938C12.7415 3.71299 12.5565 3.63636 12.3636 3.63636H9.4545C9.26162 3.63636 9.07663 3.71299 8.94024 3.84938C8.80385 3.98577 8.72723 4.17075 8.72723 4.36364V5.09091Z" fill="#4B5053"/>
</svg>
