<svg width="40" height="27" viewBox="0 0 40 27" fill="none" xmlns="http://www.w3.org/2000/svg">
<path d="M0 0H39.2727V27H0V0Z" fill="white"/>
<path d="M0 0H39.2727V1.78691H0V0ZM0 3.61309H39.2727V5.4H0V3.61309ZM0 7.20655H39.2727V8.99345H0V7.20655ZM0 10.8H39.2727V12.5869H0V10.8ZM0 14.4131H39.2727V16.2H0V14.4131ZM0 18.0065H39.2727V19.7935H0V18.0065ZM0 21.6196H39.2727V23.4065H0V21.6196ZM0 25.2131H39.2727V27H0V25.2131Z" fill="#D02F44"/>
<path d="M0 0H17.1818V12.5869H0V0Z" fill="#46467F"/>
<path d="M2.47411 2.5337L1.86538 3.00497L2.08138 2.23915L1.47266 1.74824H2.23847L2.49375 0.982422L2.74902 1.74824H3.51484L2.90611 2.23915L3.12211 3.00497L2.47411 2.5337ZM6.49956 2.5337L5.89084 3.00497L6.10684 2.23915L5.49811 1.74824H6.26393L6.5192 0.982422L6.77447 1.74824H7.54029L6.93156 2.23915L7.14756 3.00497L6.49956 2.5337ZM10.5447 2.5337L9.93593 3.00497L10.1519 2.23915L9.5432 1.74824H10.309L10.5643 0.982422L10.8196 1.74824H11.5854L10.9767 2.23915L11.1927 3.00497L10.5447 2.5337ZM14.5701 2.61224L13.9614 3.08351L14.1774 2.29806L13.5687 1.80715L14.3345 1.78751L14.5897 1.00206L14.845 1.78751L15.6108 1.80715L15.0021 2.29806L15.2181 3.08351L14.5701 2.61224ZM4.04502 4.65442L3.43629 5.1257L3.65229 4.35988L3.04357 3.86897H3.80938L4.06466 3.10315L4.30029 3.86897H5.06611L4.45738 4.35988L4.67338 5.1257L4.04502 4.65442ZM8.58102 4.65442L7.97229 5.1257L8.18829 4.35988L7.57956 3.86897H8.34538L8.60066 3.10315L8.85593 3.86897H9.62175L9.01302 4.35988L9.22902 5.1257L8.58102 4.65442ZM13.0974 4.65442L12.4887 5.1257L12.7047 4.35988L12.0959 3.86897H12.8617L13.117 3.10315L13.3723 3.86897H14.1381L13.5294 4.35988L13.7454 5.1257L13.0974 4.65442ZM2.47411 6.77515L1.86538 7.24642L2.08138 6.4806L1.47266 5.98969H2.23847L2.49375 5.22388L2.74902 5.98969H3.51484L2.90611 6.4806L3.12211 7.24642L2.47411 6.77515ZM6.49956 6.77515L5.89084 7.22679L6.10684 6.46097L5.49811 5.97006H6.26393L6.5192 5.20424L6.77447 5.97006H7.54029L6.93156 6.46097L7.14756 7.22679L6.49956 6.77515ZM10.5447 6.77515L9.93593 7.24642L10.1519 6.4806L9.5432 5.98969H10.309L10.5643 5.22388L10.8196 5.98969H11.5854L10.9767 6.4806L11.1927 7.24642L10.5447 6.77515ZM14.5701 6.83406L13.9614 7.30533L14.1774 6.51988L13.5687 6.02897L14.3345 6.00933L14.5897 5.22388L14.845 6.00933L15.6108 6.02897L15.0021 6.51988L15.2181 7.30533L14.5701 6.83406ZM2.47411 10.997L1.86538 11.4682L2.08138 10.7024L1.47266 10.2115H2.23847L2.49375 9.44569L2.74902 10.2115H3.51484L2.90611 10.7024L3.12211 11.4682L2.47411 10.997ZM6.49956 10.997L5.89084 11.4682L6.10684 10.7024L5.49811 10.2115H6.26393L6.5192 9.44569L6.77447 10.2115H7.54029L6.93156 10.7024L7.14756 11.4682L6.49956 10.997ZM10.5447 10.997L9.93593 11.4682L10.1519 10.7024L9.5432 10.2115H10.309L10.5643 9.44569L10.8196 10.2115H11.5854L10.9767 10.7024L11.1927 11.4682L10.5447 10.997ZM14.5701 11.0755L13.9614 11.5468L14.1774 10.7613L13.5687 10.2704L14.3345 10.2508L14.5897 9.46533L14.845 10.2508L15.6108 10.2704L14.9825 10.7613L15.1985 11.5468L14.5701 11.0755ZM4.04502 8.89588L3.43629 9.36715L3.65229 8.60133L3.04357 8.11042H3.80938L4.06466 7.3446L4.30029 8.11042H5.06611L4.43775 8.60133L4.65375 9.36715L4.04502 8.89588ZM8.58102 8.89588L7.97229 9.36715L8.18829 8.60133L7.57956 8.11042H8.34538L8.60066 7.3446L8.85593 8.11042H9.62175L8.99338 8.60133L9.20938 9.36715L8.58102 8.89588ZM13.0974 8.89588L12.4887 9.36715L12.7047 8.60133L12.0959 8.11042H12.8617L13.117 7.3446L13.3723 8.11042H14.1381L13.5097 8.60133L13.7257 9.36715L13.0974 8.89588Z" fill="white"/>
</svg>
