<svg width="11" height="14" viewBox="0 0 11 14" fill="none" xmlns="http://www.w3.org/2000/svg">
<path d="M1.52275 10.6755C1.65647 10.7608 1.75644 10.8992 1.80272 11.0632C1.849 11.2271 1.83819 11.4045 1.77245 11.5599L1.75011 11.6074L1.2238 12.6341H9.74671L9.1647 11.6425C9.07793 11.4951 9.04567 11.3159 9.07467 11.1424C9.10367 10.969 9.19168 10.8148 9.32027 10.7122C9.44886 10.6096 9.60805 10.5665 9.76449 10.5919C9.92093 10.6173 10.0625 10.7093 10.1595 10.8486L10.1886 10.894L10.7709 11.8857C10.889 12.0869 10.9574 12.3193 10.9692 12.5594C10.981 12.7996 10.9357 13.039 10.838 13.2534C10.7403 13.4677 10.5936 13.6495 10.4127 13.7803C10.2318 13.9111 10.0232 13.9863 9.80791 13.9983L9.74671 14H1.2241C1.01516 14 0.809694 13.9404 0.627266 13.8267C0.444838 13.713 0.291523 13.5491 0.18192 13.3506C0.0723174 13.1521 0.0100764 12.9256 0.00112416 12.6927C-0.00782805 12.4597 0.0368065 12.2281 0.130777 12.0199L0.161377 11.956L0.687691 10.9292C0.768281 10.772 0.901534 10.657 1.05814 10.6094C1.21474 10.5618 1.38187 10.5856 1.52275 10.6755ZM5.52396 0C8.1439 0 10.2669 2.37932 10.2669 5.31249C10.2669 7.2042 8.91685 9.26697 6.2813 11.5831C6.06515 11.7729 5.79804 11.876 5.52298 11.8758C5.24793 11.8755 4.98096 11.772 4.76509 11.5818L4.63076 11.4629C2.08548 9.19629 0.781019 7.1721 0.781019 5.31249C0.781019 2.37932 2.90402 0 5.52396 0ZM5.52396 1.36585C3.58088 1.36585 2.005 3.13224 2.005 5.31249C2.005 6.59468 3.03315 8.23746 5.14452 10.1695L5.39269 10.3938L5.52396 10.5099L5.65187 10.3969C7.93276 8.36585 9.04292 6.64488 9.04292 5.31249C9.04292 3.13224 7.46704 1.36585 5.52396 1.36585ZM5.52396 3.7561C5.7048 3.75608 5.88387 3.79581 6.05095 3.87302C6.21803 3.95023 6.36984 4.06341 6.49772 4.2061C6.6256 4.34879 6.72704 4.51819 6.79625 4.70462C6.86546 4.89106 6.90108 5.09088 6.90108 5.29268C6.90108 5.49448 6.86546 5.69431 6.79625 5.88074C6.72704 6.06718 6.6256 6.23658 6.49772 6.37927C6.36984 6.52195 6.21803 6.63513 6.05095 6.71235C5.88387 6.78956 5.7048 6.82929 5.52396 6.82927C5.15878 6.82923 4.80858 6.66732 4.55037 6.37916C4.29217 6.091 4.14711 5.70018 4.14711 5.29268C4.14711 4.88518 4.29217 4.49437 4.55037 4.20621C4.80858 3.91805 5.15878 3.75614 5.52396 3.7561Z" fill="#7F7F7F"/>
</svg>
