<svg width="42" height="42" viewBox="0 0 42 42" fill="none" xmlns="http://www.w3.org/2000/svg">
<path d="M20.9944 13.9971C17.1383 13.9971 13.9915 17.1439 13.9915 20.9999C13.9915 24.856 17.1383 28.0028 20.9944 28.0028C24.8504 28.0028 27.9972 24.856 27.9972 20.9999C27.9972 17.1439 24.8504 13.9971 20.9944 13.9971Z" fill="white"/>
<path d="M41.9977 20.9996C41.9977 18.0997 42.0239 15.2261 41.8611 12.3314C41.6982 8.9692 40.9312 5.98524 38.4726 3.52663C36.0087 1.06276 33.03 0.301009 29.6678 0.138152C26.7679 -0.0247047 23.8943 0.00156261 20.9996 0.00156261C18.0997 0.00156261 15.2261 -0.0247047 12.3314 0.138152C8.9692 0.301009 5.98524 1.06801 3.52663 3.52663C1.06276 5.9905 0.301009 8.9692 0.138152 12.3314C-0.0247047 15.2313 0.00156261 18.105 0.00156261 20.9996C0.00156261 23.8943 -0.0247047 26.7732 0.138152 29.6678C0.301009 33.03 1.06801 36.014 3.52663 38.4726C5.9905 40.9365 8.9692 41.6982 12.3314 41.8611C15.2313 42.0239 18.105 41.9977 20.9996 41.9977C23.8995 41.9977 26.7732 42.0239 29.6678 41.8611C33.03 41.6982 36.014 40.9312 38.4726 38.4726C40.9365 36.0087 41.6982 33.03 41.8611 29.6678C42.0292 26.7732 41.9977 23.8995 41.9977 20.9996ZM20.9944 31.7744C15.0317 31.7744 10.2195 26.9623 10.2195 20.9996C10.2195 15.0369 15.0317 10.2248 20.9944 10.2248C26.957 10.2248 31.7692 15.0369 31.7692 20.9996C31.7692 26.9623 26.957 31.7744 20.9944 31.7744ZM32.2105 12.2999C30.8183 12.2999 29.6941 11.1757 29.6941 9.78349C29.6941 8.39132 30.8183 7.26709 32.2105 7.26709C33.6026 7.26709 34.7269 8.39132 34.7269 9.78349C34.7216 11.1809 33.6026 12.2999 32.2105 12.2999Z" fill="white"/>
</svg>
