<svg width="16" height="15" viewBox="0 0 16 15" fill="none" xmlns="http://www.w3.org/2000/svg">
<path d="M1 6.36426C0.447715 6.36426 0 6.81197 0 7.36426C0 7.91654 0.447715 8.36426 1 8.36426V6.36426ZM15.7071 8.07136C16.0976 7.68084 16.0976 7.04768 15.7071 6.65715L9.34315 0.29319C8.95262 -0.0973344 8.31946 -0.0973344 7.92893 0.29319C7.53841 0.683714 7.53841 1.31688 7.92893 1.7074L13.5858 7.36426L7.92893 13.0211C7.53841 13.4116 7.53841 14.0448 7.92893 14.4353C8.31946 14.8259 8.95262 14.8259 9.34315 14.4353L15.7071 8.07136ZM1 8.36426H15V6.36426H1V8.36426Z" fill="#0E1218"/>
</svg>
