<svg width="14" height="12" viewBox="0 0 14 12" fill="none" xmlns="http://www.w3.org/2000/svg">
<path d="M5.01846 0C5.402 0 5.59236 0.257946 5.65675 0.771095V0.856163L7.56882 10.5429C7.64441 10.8859 7.62201 11.2399 7.50443 11.5719C7.47364 11.7969 7.28887 11.9726 7.05931 12H0.556043C0.362877 12 0.17251 11.8299 0.110921 11.4869C-0.00945835 11.1576 -0.0318544 10.8008 0.0437324 10.4578L1.9586 1.02904C2.08738 0.428081 2.40652 0 2.72566 0H5.01846ZM12.8039 6.85753L13.9517 10.4578C14.0161 10.7679 14.0161 11.089 13.9517 11.4018C13.8229 11.6597 13.697 11.8299 13.5066 11.8299H8.8454C8.65223 11.8299 8.46187 11.5719 8.39748 11.2289L7.6976 8.14452C7.63321 7.86188 7.63321 7.56826 7.6976 7.28836C7.82638 7.03041 7.95235 6.86028 8.14552 6.86028H12.8039V6.85753ZM10.9506 0C11.1438 0 11.2698 0.257946 11.3986 0.60096L12.8655 5.83124H7.63321C7.44284 5.83124 7.24968 5.57329 7.1237 5.14521L6.42382 1.63C6.35943 1.26229 6.35943 0.883604 6.42382 0.515893C6.5526 0.172879 6.67858 0.00274406 6.86894 0.00274406C6.87174 -5.58794e-08 10.9506 0 10.9506 0Z" fill="#4B5053"/>
</svg>
