<svg width="13" height="13" viewBox="0 0 13 13" fill="none" xmlns="http://www.w3.org/2000/svg">
<path d="M1.51163 1.89565C1.51168 1.66594 1.59173 1.44341 1.73804 1.2663C1.88434 1.0892 2.08776 0.96857 2.31334 0.925143C2.53893 0.881717 2.77259 0.918204 2.9742 1.02834C3.1758 1.13847 3.33275 1.31537 3.41809 1.52865L3.50516 1.7451C3.13231 2.0177 2.84326 2.38927 2.67074 2.81771C2.42542 3.41907 2.42109 4.0918 2.65865 4.69627C2.68097 4.75278 2.71442 4.80423 2.75701 4.84756C2.7996 4.8909 2.85047 4.92523 2.90659 4.94852C2.9627 4.97181 3.02293 4.98359 3.08369 4.98315C3.14445 4.98272 3.2045 4.97008 3.26028 4.94598L6.864 3.39452C6.97219 3.34802 7.05804 3.26126 7.10341 3.15259C7.14877 3.04393 7.15008 2.92188 7.10707 2.81226C6.99181 2.51482 6.81845 2.24331 6.59712 2.01358C6.37579 1.78384 6.11091 1.6005 5.81795 1.47423C5.34731 1.27228 4.82312 1.23147 4.32688 1.35814L4.26037 1.19187C4.09682 0.782788 3.79588 0.443448 3.40926 0.232175C3.02264 0.0209033 2.57451 -0.0491046 2.14187 0.0341846C1.70923 0.117474 1.31912 0.348858 1.03859 0.688567C0.758051 1.02828 0.604615 1.45509 0.604651 1.89565V6.0464H0.453488C0.333216 6.0464 0.217869 6.09417 0.132824 6.17922C0.0477781 6.26426 0 6.3796 0 6.49987C0 6.62013 0.0477781 6.73548 0.132824 6.82052C0.217869 6.90556 0.333216 6.95333 0.453488 6.95333H0.604651V7.16798C0.604651 7.39471 0.604651 7.52773 0.614326 7.67586C0.700186 9.0284 1.4306 10.277 2.48995 11.0932C2.48138 11.1065 2.47351 11.1202 2.46637 11.1343L1.86172 12.3436C1.8091 12.451 1.8011 12.5749 1.83945 12.6883C1.8778 12.8016 1.95939 12.8952 2.06645 12.9487C2.17351 13.0021 2.29736 13.0111 2.41101 12.9736C2.52465 12.9362 2.61888 12.8553 2.67316 12.7487L3.25846 11.5787C3.74561 11.8275 4.27445 11.9843 4.81847 12.0412C4.9666 12.0564 5.0567 12.0594 5.21028 12.0654H5.21451C5.66195 12.0824 6.09972 12.0926 6.5 12.0926C6.90028 12.0926 7.33805 12.0824 7.78549 12.0654H7.78972C7.9433 12.0594 8.034 12.0564 8.18153 12.0412C8.72555 11.9843 9.25439 11.8275 9.74154 11.5787L10.3268 12.7493C10.3806 12.8569 10.475 12.9387 10.5891 12.9767C10.7032 13.0148 10.8278 13.0059 10.9354 12.9521C11.043 12.8983 11.1248 12.804 11.1629 12.6898C11.2009 12.5757 11.1921 12.4512 11.1383 12.3436L10.5336 11.1343C10.5266 11.1202 10.519 11.1065 10.5107 11.0932C11.5694 10.277 12.3004 9.0278 12.3863 7.67586C12.3953 7.52773 12.3953 7.39471 12.3953 7.16798V7.145C12.3953 7.10872 12.3953 7.07063 12.3929 7.03617C12.3912 7.00846 12.3884 6.98082 12.3845 6.95333H12.5465C12.6668 6.95333 12.7821 6.90556 12.8672 6.82052C12.9522 6.73548 13 6.62013 13 6.49987C13 6.3796 12.9522 6.26426 12.8672 6.17922C12.7821 6.09417 12.6668 6.0464 12.5465 6.0464H1.51163V1.89565Z" fill="#4B5053"/>
</svg>
