<svg width="42" height="42" viewBox="0 0 42 42" fill="none" xmlns="http://www.w3.org/2000/svg">
<path d="M35.5142 0H6.46477C2.91754 0 0 2.856 0 6.405V35.574C0 39.144 2.91754 42 6.46477 42H35.5352C39.0825 42 41.979 39.144 42 35.595V6.405C41.958 2.856 39.0615 0 35.5142 0ZM34.5277 18.228C31.925 18.249 29.3223 17.43 27.1814 15.918C27.1814 19.215 27.1814 22.512 27.2234 25.809C27.2234 26.25 27.2444 26.691 27.2024 27.132C27.0975 28.749 26.5727 30.303 25.7751 31.71C25.0825 32.907 24.1379 33.999 23.0045 34.818C21.5562 35.889 19.7511 36.498 17.946 36.54C17.0225 36.561 16.099 36.519 15.2174 36.309C13.958 36.036 12.7406 35.511 11.6912 34.776C11.6702 34.755 11.6282 34.734 11.6282 34.713C10.4948 33.915 9.55023 32.886 8.85757 31.689C7.91304 30.114 7.43029 28.245 7.49325 26.397C7.53523 24.696 8.03898 23.016 8.92054 21.567C9.71814 20.244 10.8516 19.11 12.1739 18.312C14.084 17.136 16.4138 16.632 18.6387 16.947V18.207C18.6597 18.732 18.6387 19.257 18.6597 19.761V22.428C17.988 22.197 17.2534 22.197 16.5607 22.365C15.7421 22.554 14.9445 22.911 14.2939 23.457C13.8951 23.793 13.5592 24.192 13.3283 24.654C12.9295 25.431 12.7826 26.334 12.8666 27.216C12.9715 28.056 13.3283 28.875 13.8741 29.526C14.2519 29.967 14.7136 30.345 15.2174 30.639C16.5817 31.395 18.3448 31.332 19.6672 30.492C20.9475 29.694 21.7661 28.245 21.7661 26.754V13.23C21.7871 10.647 21.7661 8.064 21.7871 5.481H27.1184C27.0975 5.943 27.1604 6.384 27.2444 6.846H27.2654C27.4123 7.602 27.6852 8.316 28.042 9.009C28.5877 10.059 29.3853 11.004 30.3928 11.613C30.4558 11.655 30.4977 11.718 30.5607 11.76C31.3163 12.222 32.1349 12.579 32.9955 12.747C33.4993 12.852 34.024 12.894 34.5277 12.915V18.228Z" fill="white"/>
</svg>
