<svg width="42" height="42" viewBox="0 0 42 42" fill="none" xmlns="http://www.w3.org/2000/svg">
<path d="M40.8661 2.31792C40.5384 1.87282 40.1436 1.46131 39.6817 1.1338C38.7324 0.428286 37.5816 0 36.3216 0H5.67845C4.4184 0 3.25082 0.428327 2.30161 1.13376C1.85642 1.46131 1.44482 1.85604 1.11725 2.31788C0.428413 3.25862 0 4.41751 0 5.68572V36.3227C0 37.5825 0.428372 38.7498 1.13394 39.6821C1.46156 40.1272 1.85637 40.5387 2.31835 40.8662C3.26756 41.5717 4.41836 42 5.67837 42H36.3216C37.5816 42 38.7492 41.5717 39.6816 40.8662C40.1268 40.5387 40.5384 40.144 40.866 39.6821C41.5716 38.7331 42 37.5825 42 36.3227V5.68568C42 4.41747 41.5548 3.25857 40.866 2.31788L40.8661 2.31792ZM15.036 19.1565C15.708 17.6701 16.4641 16.2087 17.178 14.7474H19.6392C19.0344 15.9484 18.3624 17.1242 17.934 18.2663C18.9336 18.2076 19.8408 18.1572 20.9076 18.0984C20.3364 19.2406 19.8324 20.2568 19.3284 21.2729C19.2612 21.4073 19.194 21.5501 19.1268 21.6844C18.5976 22.7426 18.5976 22.751 19.7736 22.7763C19.8996 22.7763 20.0172 22.7931 20.244 22.8182C19.9164 23.4649 19.6224 24.0528 19.3116 24.6322C19.2612 24.7246 19.1184 24.8338 19.026 24.8338C18.1608 24.8338 17.2872 24.859 16.422 24.7666C15.8004 24.6994 15.5568 24.2207 15.8004 23.6328C16.0944 22.9022 16.4472 22.1883 16.7748 21.4661C16.884 21.2141 17.0016 20.9706 17.1613 20.601C16.6824 20.601 16.3296 20.6095 15.9768 20.601C14.9604 20.5591 14.6161 20.0971 15.036 19.1565ZM3.12479 27.0006C2.604 26.0936 2.13366 25.2537 1.65482 24.4139C1.65482 24.3131 2.59563 21.4409 2.38563 18.1908H4.9728C4.9728 18.1908 5.06523 24.2796 3.12479 27.0006ZM9.16442 26.6731C9.18961 28.1932 8.13964 28.1932 8.13964 28.1932H6.65281L5.09042 26.1272H6.72842V14.7474H9.18961C9.18961 18.4763 9.18124 22.9442 9.16442 26.6731ZM12.7428 26.8663C11.5668 25.8333 10.9285 22.751 10.9452 18.174H13.3728C13.1881 20.5843 13.9692 23.8008 13.9692 23.8008C13.9692 23.8008 13.2552 25.3798 12.7428 26.8663ZM18.0684 27.9328C18.0012 28.0588 17.7912 28.1764 17.64 28.1848C16.4976 28.2016 15.3468 28.1932 14.0364 28.1932C14.532 27.2022 14.9436 26.3959 15.3048 25.6905H19.2276C18.7908 26.5471 18.4464 27.2526 18.0684 27.9328V27.9328ZM28.098 28.2016H19.2696C19.698 27.3534 20.4624 25.8417 20.4624 25.8417H22.9824V18.1236H21.4116V15.7133H27.0985V18.09H25.5445V25.85H28.098V28.2016ZM39.774 26.4211C39.774 28.2016 38.0352 28.1512 38.0352 28.1512H35.7672L34.818 26.1104L37.2792 26.1188C37.2792 26.1188 37.3044 24.2712 37.2792 23.6329C37.2624 23.0954 36.9684 22.751 36.4224 22.7427C35.3304 22.7175 34.23 22.7343 33.0288 22.7343V28.1596H30.5928V22.7678H28.1316V20.2568H30.5256V18.132H28.938V15.7552H30.5508V14.7474H33.012L33.0288 15.7552H34.986C34.986 15.7552 36.792 15.7132 36.8004 17.4684C36.8088 17.9892 36.8172 19.6941 36.8172 20.2652C38.892 20.2568 39.774 20.6767 39.774 22.1211V26.4211V26.4211ZM38.7324 18.1991H37.422V16.9479C37.422 16.4943 37.6488 16.0744 38.0352 15.8309C38.472 15.5537 39.0768 15.3774 39.648 15.9232C39.6732 15.9401 39.69 15.9652 39.7068 15.9904C40.4964 16.8218 39.8748 18.1992 38.7324 18.1992L38.7324 18.1991Z" fill="white"/>
<path d="M33.0451 20.2577H34.6747V18.124H33.0283L33.0451 20.2577Z" fill="white"/>
</svg>
