<svg width="49" height="42" viewBox="0 0 49 42" fill="none" xmlns="http://www.w3.org/2000/svg">
<path d="M48.1164 11.2059C47.6171 8.58677 46.3009 6.18831 44.3528 4.34763C42.4047 2.50696 39.9226 1.31662 37.2555 0.943921C28.8049 -0.31464 20.2115 -0.31464 11.7609 0.943921C9.08983 1.31116 6.60287 2.49933 4.65114 4.34066C2.69941 6.18198 1.38153 8.58343 0.883599 11.2059C-0.294533 17.6827 -0.294533 24.3157 0.883599 30.7925C1.38289 33.4116 2.69909 35.8101 4.6472 37.6508C6.59531 39.4915 9.07738 40.6818 11.7445 41.0545C20.2005 42.3152 28.7995 42.3152 37.2555 41.0545C39.9235 40.6841 42.4069 39.4946 44.3554 37.6535C46.3039 35.8124 47.6194 33.4127 48.1164 30.7925C49.2945 24.3157 49.2945 17.6827 48.1164 11.2059ZM36.0469 22.7446L18.6694 33.7984C17.1505 34.7519 15.9256 34.0893 15.9256 32.3116V9.6868C15.9256 7.90913 17.1668 7.24655 18.6694 8.20002L36.0469 19.2539C36.3835 19.408 36.6686 19.6542 36.8684 19.9635C37.0681 20.2728 37.1743 20.6322 37.1743 20.9992C37.1743 21.3663 37.0681 21.7256 36.8684 22.0349C36.6686 22.3442 36.3835 22.5904 36.0469 22.7446Z" fill="white"/>
</svg>
